<svg width="198" height="190" viewBox="0 0 198 190" fill="none" xmlns="http://www.w3.org/2000/svg">
<g clip-path="url(#clip0_73_235)">
<path d="M90.0406 54.1503C86.8677 56.915 80.6628 62.8672 74.7048 68.5552L67.9535 75.018C62.4009 74.0847 56.9893 73.574 51.2956 73.574C38.7449 73.574 27.1109 77.0079 21.9461 82.4317C19.9718 84.5449 18.9141 86.6581 19.0375 89.0354C19.1786 95.1108 26.1766 98.1573 28.2919 99.073C39.5382 103.176 48.9159 101.979 58.6991 95.1108C64.1284 91.2895 70.7386 85.2141 75.7624 80.3185C79.7286 81.2519 84.2236 82.4317 89.124 83.8933L93.619 85.2141C87.8019 90.8844 81.8615 96.9598 76.3089 101.732L75.9211 102.137C68.2532 108.864 62.7005 113.76 54.6272 115.609C48.9512 116.789 44.985 115.609 43.663 114.816C43.522 114.816 43.3986 115.08 43.3986 115.08C48.0169 118.902 52.3885 121.033 60.0564 120.363C67.1955 119.694 75.5333 115.221 83.9944 107.297L95.4875 96.0617L103.561 88.1373L119.813 92.892C119.954 92.892 120.078 92.892 120.078 92.892C119.954 92.892 110.03 102.665 110.03 102.665L101.428 111.259C92.5789 119.853 87.8195 124.326 82.5313 128.024C74.0702 134.099 66.6667 137.269 60.1798 137.674C56.8659 137.938 51.9831 137.674 48.0169 135.297C47.8759 135.297 47.6291 135.437 47.6291 135.437C51.9831 139.135 57.4123 143.626 66.5257 143.362C76.9787 143.098 86.2331 138.079 100.511 124.871C107.122 118.796 113.608 112.192 119.284 106.24L129.984 95.4102C136.982 96.995 143.328 97.6466 150.203 97.5234C160.25 97.2592 168.976 92.5046 169.099 86.9574C169.24 82.8544 165.785 80.7412 163.811 79.4204C162.101 78.3638 157.606 75.8456 151.384 75.8456C143.857 75.8456 135.925 79.1563 127.851 85.7424L122.563 90.497L120.589 89.9687L105.782 85.8656C110.153 81.7802 113.838 78.3286 117.293 75.2997C125.489 68.0445 134.479 65.1212 139.626 64.7338C143.469 64.4697 150.203 64.8747 152.847 66.7061C152.988 66.7061 153.111 66.442 153.111 66.442C145.849 60.2257 139.485 59.31 134.197 59.31C129.032 59.31 120.853 60.8949 110.665 68.696C106.557 71.8658 101.146 77.2896 95.5932 82.96L88.0487 80.5827L86.1978 80.0544L78.2655 77.6771C78.4065 77.6771 82.7605 73.4507 82.7605 73.4507C88.0487 68.1677 93.0725 63.2722 97.0387 59.9791C111.317 47.9692 120.307 46.3843 126.512 46.3843C133.386 46.3843 138.798 47.846 142.641 50.6107C142.782 50.6107 142.905 50.3466 142.905 50.3466C134.832 43.0913 129.156 40.8372 119.232 40.714C110.665 40.4146 100.212 45.2925 90.0406 54.1503ZM33.9855 96.8013C29.3672 96.5372 27.1109 94.6882 27.1109 90.9901C27.1109 90.4618 27.3753 79.2267 53.2875 77.906C56.196 77.7827 59.51 77.6418 64.5338 78.1701C64.2694 78.1701 61.6253 80.6883 61.6253 80.6883L60.0388 82.1323C53.8163 88.0845 43.3633 97.4705 33.9855 96.8013ZM138.816 87.6971C146.219 82.6783 152.441 80.0368 156.267 80.16C158.505 80.2833 161.29 80.9525 161.29 83.7348C161.29 86.6405 158.505 89.0178 153.094 90.9901C148.334 92.6982 141.072 93.1033 133.122 92.1699C135.378 90.1976 137.229 88.7537 138.816 87.6971Z" fill="#05A5A6"/>
<path d="M141.336 0L140.807 0.91572C174.264 19.4061 194.871 56.7741 189.988 96.9422C183.519 149.895 135.378 187.545 82.4961 181.064C42.5701 176.187 11.2286 147.659 1.05764 111.065L0 111.206C8.86657 151.621 42.3057 183.988 85.8101 189.271C140.666 195.874 190.658 156.904 197.268 101.961C202.539 58.4999 178.883 18.0853 141.336 0Z" fill="#05A5A6"/>
</g>
<defs>
<clipPath id="clip0_73_235">
<rect width="198" height="190" fill="white"/>
</clipPath>
</defs>
</svg>
